<?xml version="1.0" encoding="utf-8"?>
<!-- Generator: Adobe Illustrator 23.1.1, SVG Export Plug-In . SVG Version: 6.00 Build 0)  -->
<svg version="1.1" id="Layer_1" xmlns="http://www.w3.org/2000/svg" xmlns:xlink="http://www.w3.org/1999/xlink" x="0px" y="0px"
	 viewBox="0 0 461.78 104.08" style="enable-background:new 0 0 461.78 104.08;" xml:space="preserve">
<style type="text/css">
	.st0{fill:#EFE300;}
</style>
<title>DIMERS_brightyellow</title>
<path class="st0" d="M0,0v104.08h461.78V0H0z M456.38,5.4v44.44h-24.83c-0.3-0.34-0.6-0.69-0.92-1c-4.19-4.32-9.98-6.72-16-6.62
	h-20.55c-0.78,0.02-1.53-0.28-2.08-0.84c-0.57-0.54-0.89-1.29-0.89-2.08c0-1.66,1.34-3,3-3h35.31l2.82,2.81
	c0.17,0.2,0.45,0.26,0.69,0.15c0.24-0.1,0.39-0.33,0.39-0.59v-22h-39.24c-12.52,0.06-22.62,10.27-22.55,22.79
	c0.02,3.6,0.89,7.14,2.55,10.33h-9.33c0.57-2.2,0.85-4.47,0.85-6.74c0.07-7.05-2.79-13.81-7.9-18.67
	c-4.98-5.03-11.79-7.82-18.87-7.71h-37.57c-0.39-0.02-0.75,0.22-0.89,0.59c-0.16,0.37-0.08,0.8,0.2,1.09l4.2,4.2v25.09l-2.12,2.15
	H278.5v-5.66h-27.46v-7.85h35.31l4.2,4.2c0.27,0.32,0.71,0.42,1.09,0.25c0.38-0.15,0.62-0.53,0.59-0.94V16.72h-64.35
	c-0.39-0.02-0.76,0.22-0.89,0.59c-0.16,0.37-0.09,0.8,0.19,1.09l4.2,4.2v25.09l-2.12,2.15h-11.25l-2.14-2.15V22.6l4.19-4.2
	c0.32-0.27,0.4-0.73,0.2-1.09c-0.13-0.37-0.5-0.61-0.89-0.59h-26.11c-0.39-0.02-0.75,0.22-0.88,0.59c-0.16,0.37-0.09,0.8,0.19,1.09
	l1.78,1.78l-15.8,22.57l-15.81-22.57l1.78-1.78c0.32-0.27,0.4-0.73,0.2-1.09c-0.14-0.37-0.5-0.61-0.89-0.59h-26.05
	c-0.39-0.02-0.75,0.22-0.89,0.59c-0.16,0.37-0.08,0.8,0.2,1.09l4.2,4.2v25.09l-2.12,2.15h-11.25l-2.12-2.15V22.6l4.2-4.2
	c0.28-0.29,0.36-0.72,0.2-1.09c-0.14-0.37-0.5-0.61-0.89-0.59h-26.67c-0.39-0.02-0.76,0.22-0.89,0.59c-0.16,0.37-0.08,0.8,0.2,1.09
	l4.19,4.2v25.09l-2.11,2.15h-8.2l-2-2c-2.11-17.76-17.18-31.13-35.06-31.12H25.82c-0.39-0.02-0.75,0.22-0.89,0.59
	c-0.16,0.37-0.08,0.8,0.2,1.09l4.2,4.2v25.09l-2.07,2.15H5.4V5.4H456.38z M324.38,49.84V36.33h14.71c3.79,0.02,6.85,3.08,6.87,6.87
	c0.04,1.82-0.68,3.58-2,4.84c-0.85,0.87-1.92,1.49-3.09,1.8L324.38,49.84z M48.98,54.24H74.3c-1.08,7.75-7.71,13.52-15.54,13.5
	h-9.78L48.98,54.24z M48.98,49.84V36.33h9.78c7.83-0.02,14.47,5.75,15.54,13.51H48.98z M5.39,98.68V54.24h21.87l2.12,2.14v25.09
	l-4.2,4.2c-0.28,0.29-0.36,0.72-0.2,1.09c0.14,0.37,0.5,0.61,0.89,0.59h32.95c17.9,0.01,32.98-13.39,35.06-31.17l2-1.94h8.22
	l2.11,2.14v25.09l-4.19,4.2c-0.3,0.28-0.38,0.72-0.2,1.09c0.13,0.37,0.5,0.61,0.89,0.59h26.67c0.39,0.02,0.75-0.22,0.89-0.59
	c0.16-0.37,0.08-0.8-0.2-1.09l-4.2-4.2V56.4l2.12-2.14h11.25l2.02,2.14v25.09l-4.2,4.2c-0.28,0.29-0.36,0.72-0.2,1.09
	c0.14,0.37,0.5,0.61,0.89,0.59h26.67c0.39,0.02,0.75-0.22,0.89-0.59c0.16-0.37,0.08-0.8-0.2-1.09l-4.19-4.2V54.24h1.93l15.7,22.47
	l15.74-22.47h1.97v27.23l-4.25,4.2c-0.28,0.29-0.36,0.72-0.2,1.09c0.14,0.37,0.5,0.61,0.89,0.59h26.67
	c0.39,0.02,0.76-0.22,0.89-0.59c0.21-0.36,0.13-0.83-0.2-1.09l-4.19-4.2V56.4l2.14-2.14h11.25l2.12,2.14v25.09l-4.2,4.2
	c-0.28,0.29-0.35,0.72-0.19,1.09c0.13,0.37,0.5,0.61,0.89,0.59h64.38V64.24c0.04-0.41-0.21-0.79-0.59-0.94
	c-0.37-0.16-0.8-0.09-1.09,0.19l-4.2,4.25h-35.34v-7.85h27.46v-5.65h24.11l2.12,2.14v25.09l-4.2,4.2c-0.28,0.29-0.36,0.72-0.2,1.09
	c0.14,0.37,0.5,0.61,0.89,0.59h26.67c0.39,0.02,0.76-0.22,0.89-0.59c0.18-0.37,0.1-0.81-0.2-1.09l-4.19-4.2v-11.8h7.87l8.2,13.88
	l-2.08,2.12c-0.32,0.26-0.42,0.71-0.24,1.09c0.15,0.38,0.52,0.62,0.93,0.59h3.51v-0.3l0.15,0.3h21.09c0.55-0.02,0.98-0.48,0.96-1.04
	c-0.01-0.16-0.05-0.31-0.12-0.44l-11.86-20c3.83-2.35,7.01-5.63,9.24-9.54c0.4-0.69,0.74-1.39,1.07-2.09h14.06
	c0.3,0.34,0.6,0.68,0.92,1c4.19,4.32,9.98,6.71,16,6.61h20.59c1.63,0,2.96,1.29,3,2.92c0,1.66-1.34,3-3,3h-35.32l-2.82-2.81
	c-0.17-0.2-0.45-0.26-0.69-0.15c-0.27,0.07-0.45,0.31-0.44,0.59v22h39.26c12.52-0.07,22.61-10.27,22.55-22.79
	c-0.02-3.59-0.89-7.13-2.55-10.32h21.69v44.44L5.39,98.68z"/>
</svg>
